<svg xmlns="http://www.w3.org/2000/svg" xmlns:xlink="http://www.w3.org/1999/xlink" width="500" zoomAndPan="magnify" viewBox="0 0 375 374.999991" height="500" preserveAspectRatio="xMidYMid meet" version="1.0"><defs><g/><clipPath id="a0073a72ee"><path d="M 6.328125 3.164062 L 375 3.164062 L 375 371.835938 L 6.328125 371.835938 Z M 6.328125 3.164062 " clip-rule="nonzero"/></clipPath><clipPath id="04215e711a"><path d="M 190.664062 3.164062 C 88.855469 3.164062 6.328125 85.695312 6.328125 187.5 C 6.328125 289.304688 88.855469 371.835938 190.664062 371.835938 C 292.46875 371.835938 375 289.304688 375 187.5 C 375 85.695312 292.46875 3.164062 190.664062 3.164062 Z M 190.664062 3.164062 " clip-rule="nonzero"/></clipPath><clipPath id="6fa1ad008c"><path d="M 110.90625 194.109375 L 270.65625 194.109375 L 270.65625 323.859375 L 110.90625 323.859375 Z M 110.90625 194.109375 " clip-rule="nonzero"/></clipPath></defs><g clip-path="url(#a0073a72ee)"><g clip-path="url(#04215e711a)"><path fill="#fc5727" d="M 6.328125 3.164062 L 375 3.164062 L 375 371.835938 L 6.328125 371.835938 Z M 6.328125 3.164062 " fill-opacity="1" fill-rule="nonzero"/></g></g><g clip-path="url(#6fa1ad008c)"><path fill="#ffffff" d="M 147.964844 255.15625 C 142.589844 255.15625 138.21875 259.511719 138.21875 264.871094 C 138.21875 270.230469 142.589844 274.589844 147.964844 274.589844 C 153.335938 274.589844 157.707031 270.230469 157.707031 264.871094 C 157.707031 259.511719 153.335938 255.15625 147.964844 255.15625 Z M 147.964844 255.15625 C 142.589844 255.15625 138.21875 259.511719 138.21875 264.871094 C 138.21875 270.230469 142.589844 274.589844 147.964844 274.589844 C 153.335938 274.589844 157.707031 270.230469 157.707031 264.871094 C 157.707031 259.511719 153.335938 255.15625 147.964844 255.15625 Z M 147.964844 255.15625 C 142.589844 255.15625 138.21875 259.511719 138.21875 264.871094 C 138.21875 270.230469 142.589844 274.589844 147.964844 274.589844 C 153.335938 274.589844 157.707031 270.230469 157.707031 264.871094 C 157.707031 259.511719 153.335938 255.15625 147.964844 255.15625 Z M 147.964844 255.15625 C 142.589844 255.15625 138.21875 259.511719 138.21875 264.871094 C 138.21875 270.230469 142.589844 274.589844 147.964844 274.589844 C 153.335938 274.589844 157.707031 270.230469 157.707031 264.871094 C 157.707031 259.511719 153.335938 255.15625 147.964844 255.15625 Z M 261.351562 224.828125 L 209.382812 224.828125 L 209.382812 237.78125 L 217.355469 237.78125 L 217.355469 243.671875 L 163.613281 243.671875 L 163.613281 237.78125 L 171.585938 237.78125 L 171.585938 224.828125 L 119.910156 224.828125 C 114.863281 224.828125 110.757812 228.917969 110.757812 233.953125 L 110.757812 314.339844 C 110.757812 319.375 114.863281 323.46875 119.910156 323.46875 L 261.351562 323.46875 C 266.402344 323.46875 270.507812 319.375 270.507812 314.339844 L 270.507812 233.953125 C 270.507812 228.917969 266.402344 224.828125 261.351562 224.828125 Z M 147.964844 249.265625 C 156.585938 249.265625 163.613281 256.273438 163.613281 264.871094 C 163.613281 273.46875 156.585938 280.480469 147.964844 280.480469 C 139.339844 280.480469 132.3125 273.46875 132.3125 264.871094 C 132.3125 256.273438 139.339844 249.265625 147.964844 249.265625 Z M 165.976562 309.335938 C 165.976562 299.441406 157.886719 291.375 147.964844 291.375 C 138.042969 291.375 129.949219 299.441406 129.949219 309.335938 L 124.046875 309.335938 C 124.046875 296.171875 134.765625 285.484375 147.964844 285.484375 C 161.164062 285.484375 171.882812 296.171875 171.882812 309.335938 Z M 220.308594 308.453125 L 186.941406 308.453125 L 186.941406 302.5625 L 220.308594 302.5625 Z M 253.972656 283.71875 L 186.941406 283.71875 L 186.941406 277.828125 L 253.972656 277.828125 Z M 253.972656 259.277344 L 186.941406 259.277344 L 186.941406 253.390625 L 253.972656 253.390625 Z M 147.964844 274.589844 C 153.335938 274.589844 157.707031 270.230469 157.707031 264.871094 C 157.707031 259.511719 153.335938 255.15625 147.964844 255.15625 C 142.589844 255.15625 138.21875 259.511719 138.21875 264.871094 C 138.21875 270.230469 142.589844 274.589844 147.964844 274.589844 Z M 147.964844 255.15625 C 142.589844 255.15625 138.21875 259.511719 138.21875 264.871094 C 138.21875 270.230469 142.589844 274.589844 147.964844 274.589844 C 153.335938 274.589844 157.707031 270.230469 157.707031 264.871094 C 157.707031 259.511719 153.335938 255.15625 147.964844 255.15625 Z M 147.964844 255.15625 C 142.589844 255.15625 138.21875 259.511719 138.21875 264.871094 C 138.21875 270.230469 142.589844 274.589844 147.964844 274.589844 C 153.335938 274.589844 157.707031 270.230469 157.707031 264.871094 C 157.707031 259.511719 153.335938 255.15625 147.964844 255.15625 Z M 147.964844 255.15625 C 142.589844 255.15625 138.21875 259.511719 138.21875 264.871094 C 138.21875 270.230469 142.589844 274.589844 147.964844 274.589844 C 153.335938 274.589844 157.707031 270.230469 157.707031 264.871094 C 157.707031 259.511719 153.335938 255.15625 147.964844 255.15625 Z M 147.964844 255.15625 C 142.589844 255.15625 138.21875 259.511719 138.21875 264.871094 C 138.21875 270.230469 142.589844 274.589844 147.964844 274.589844 C 153.335938 274.589844 157.707031 270.230469 157.707031 264.871094 C 157.707031 259.511719 153.335938 255.15625 147.964844 255.15625 Z M 198.160156 194.203125 L 182.808594 194.203125 C 179.882812 194.203125 177.492188 196.589844 177.492188 199.503906 L 177.492188 237.78125 L 203.476562 237.78125 L 203.476562 199.503906 C 203.476562 196.589844 201.085938 194.203125 198.160156 194.203125 Z M 198.160156 194.203125 " fill-opacity="1" fill-rule="nonzero"/></g><g fill="#ffffff" fill-opacity="1"><g transform="translate(55.386212, 166.516585)"><g><path d="M 71.808594 -16.269531 L 32.070312 -16.269531 L 71.34375 -64.023438 L 71.34375 -80.175781 L 9.410156 -80.175781 L 9.410156 -63.910156 L 45.78125 -63.910156 L 6.160156 -15.804688 L 6.160156 0 L 71.808594 0 Z M 71.808594 -16.269531 "/></g></g></g><g fill="#ffffff" fill-opacity="1"><g transform="translate(130.664574, 166.516585)"><g><path d="M 30.210938 0 L 30.210938 -80.175781 L 9.296875 -80.175781 L 9.296875 0 Z M 30.210938 0 "/></g></g></g><g fill="#ffffff" fill-opacity="1"><g transform="translate(167.142058, 166.516585)"><g><path d="M 74.597656 -63.910156 L 74.597656 -80.175781 L 1.625 -80.175781 L 1.625 -63.910156 L 27.65625 -63.910156 L 27.65625 0 L 48.570312 0 L 48.570312 -63.910156 Z M 74.597656 -63.910156 "/></g></g></g><g fill="#ffffff" fill-opacity="1"><g transform="translate(240.561718, 166.516585)"><g><path d="M 54.378906 -20.800781 L 61.121094 0 L 83.894531 0 L 54.960938 -80.175781 L 29.398438 -80.175781 L 0.464844 0 L 22.660156 0 L 29.398438 -20.800781 Z M 41.949219 -61.699219 L 49.382812 -37.066406 L 34.511719 -37.066406 Z M 41.949219 -61.699219 "/></g></g></g></svg>